<?xml version="1.0" standalone="no"?>
<!DOCTYPE svg PUBLIC "-//W3C//DTD SVG 20010904//EN"
 "http://www.w3.org/TR/2001/REC-SVG-20010904/DTD/svg10.dtd">
<svg version="1.0" xmlns="http://www.w3.org/2000/svg"
 width="784.000000pt" height="784.000000pt" viewBox="0 0 784.000000 784.000000"
 preserveAspectRatio="xMidYMid meet">
<metadata>
Created by potrace 1.11, written by Peter Selinger 2001-2013
</metadata>
<g transform="translate(0.000000,784.000000) scale(0.100000,-0.100000)"
fill="#000000" stroke="none">
<path d="M1766 7823 c-295 -63 -523 -288 -586 -580 -20 -91 -20 -129 -20
-3330 1 -3118 2 -3241 19 -3313 29 -115 55 -175 113 -263 46 -68 159 -181 199
-199 16 -7 29 -16 29 -19 0 -12 156 -77 230 -95 72 -18 160 -18 2120 -18 1125
0 2063 3 2085 7 22 3 58 11 80 17 22 6 45 12 50 13 6 2 40 17 77 34 188 88
312 225 397 436 31 78 59 301 39 313 -4 3 -5 13 0 22 6 14 8 366 2 382 -1 3
-1 10 0 15 6 27 4 298 -3 302 -4 2 -4 9 0 16 8 13 8 530 0 543 -3 6 -3 15 1
21 6 9 7 368 2 383 -1 3 -1 10 0 15 5 22 3 533 -3 541 -3 6 -3 15 1 21 6 9 7
368 2 383 -1 3 -1 10 0 15 5 22 3 533 -3 541 -3 6 -3 15 1 21 6 9 7 368 2 383
-1 3 -1 10 0 15 5 22 3 533 -3 541 -3 6 -3 15 1 21 8 13 7 606 -1 620 -3 5 -3
14 1 20 6 9 7 368 2 383 -1 3 -1 10 0 15 3 12 2 538 0 545 -1 3 -1 10 0 15 6
25 4 375 -2 375 -4 0 -4 10 0 23 12 35 0 205 -18 253 -5 13 -8 24 -5 24 3 0
-32 95 -57 152 -7 15 -16 28 -20 28 -5 0 -8 5 -8 11 0 6 -14 30 -32 53 -128
167 -271 258 -476 302 -103 21 -4115 19 -4216 -3z"/>
</g>
</svg>
